<svg width="26" height="26" viewBox="0 0 26 26" fill="none" xmlns="http://www.w3.org/2000/svg">
<path fill-rule="evenodd" clip-rule="evenodd" d="M19.3642 9.29289C19.7547 8.90244 20.3877 8.90239 20.7782 9.29289C21.1687 9.6834 21.1687 10.3165 20.7782 10.707L13.9628 17.5214C13.9161 17.6138 13.8554 17.7011 13.7782 17.7782C13.5739 17.9826 13.3028 18.0788 13.0351 18.0693C12.7676 18.0786 12.4971 17.9824 12.2929 17.7782C12.2156 17.701 12.154 17.6139 12.1073 17.5214L5.29289 10.707C4.90237 10.3164 4.90237 9.68342 5.29289 9.29289C5.68342 8.90237 6.31643 8.90237 6.70696 9.29289L13.0351 15.621L19.3642 9.29289Z" fill="#ABABAB"/>
</svg>
