<svg width="26" height="26" viewBox="0 0 26 26" fill="none" xmlns="http://www.w3.org/2000/svg">
<path fill-rule="evenodd" clip-rule="evenodd" d="M6.63582 16.7071C6.24529 17.0976 5.61226 17.0976 5.22176 16.7071C4.83133 16.3166 4.83133 15.6835 5.22176 15.293L12.0372 8.47859C12.0839 8.38624 12.1446 8.29891 12.2218 8.22176C12.4261 8.01737 12.6972 7.92119 12.9649 7.93074C13.2324 7.9214 13.5029 8.01761 13.7071 8.22176C13.7844 8.29901 13.846 8.3861 13.8927 8.47859L20.7071 15.293C21.0976 15.6836 21.0976 16.3166 20.7071 16.7071C20.3166 17.0976 19.6836 17.0976 19.293 16.7071L12.9649 10.379L6.63582 16.7071Z" fill="#ABABAB"/>
</svg>
