<svg width="14" height="14" viewBox="0 0 14 14" fill="none" xmlns="http://www.w3.org/2000/svg">
<rect x="2" width="10" height="14" rx="1" fill="#D9D9D9"/>
<path d="M6.25 2C6.664 2.00026 7 2.33594 7 2.75L5.5 5L4 2.75C4 2.33579 4.33579 2 4.75 2C5.164 2.00026 5.5 2.33594 5.5 2.75C5.5 2.33579 5.83579 2 6.25 2Z" fill="black"/>
<path d="M7.75 12C7.336 11.9997 7 11.6641 7 11.25L8.5 9L10 11.25C10 11.6642 9.66421 12 9.25 12C8.836 11.9997 8.5 11.6641 8.5 11.25C8.5 11.6642 8.16421 12 7.75 12Z" fill="black"/>
</svg>
