<svg width="26" height="26" viewBox="0 0 26 26" fill="none" xmlns="http://www.w3.org/2000/svg">
<path fill-rule="evenodd" clip-rule="evenodd" d="M21.5009 6.29289C21.8914 5.90237 22.5244 5.90237 22.915 6.29289C23.3053 6.68343 23.3054 7.31649 22.915 7.70696L14.2431 16.3779L10.9628 19.6581C10.9162 19.75 10.856 19.8372 10.7792 19.914C10.5749 20.1183 10.3037 20.2145 10.036 20.205C9.76861 20.2144 9.49806 20.1181 9.29386 19.914C9.21665 19.8368 9.15499 19.7496 9.10831 19.6572L2.29386 12.8427C1.90334 12.4522 1.90336 11.8192 2.29386 11.4286C2.68438 11.0381 3.3174 11.0381 3.70792 11.4286L10.036 17.7568L21.5009 6.29289Z" fill="#ABABAB"/>
</svg>
