<svg width="140" height="140" viewBox="0 0 140 140" fill="none" xmlns="http://www.w3.org/2000/svg">
<rect x="62.126" y="7.63853" width="67" height="109" rx="7.5" transform="rotate(19.557 62.126 7.63853)" fill="white" stroke="black"/>
<rect x="14.5" y="23.5" width="67" height="109" rx="7.5" fill="white" stroke="black"/>
<path d="M45.9762 62.5423C47.2285 61.8192 48.7715 61.8192 50.0238 62.5423L59.9762 68.2883C61.2285 69.0113 62 70.3476 62 71.7936V83.2857C62 84.7317 61.2285 86.068 59.9762 86.791L50.0238 92.537C48.7715 93.26 47.2285 93.26 45.9762 92.537L36.0238 86.791C34.7715 86.068 34 84.7317 34 83.2857V71.7936C34 70.3476 34.7715 69.0113 36.0238 68.2883L45.9762 62.5423Z" fill="#F3DC1E"/>
<path d="M41.0385 71.0896H43.3069V77.5643C43.3069 78.1649 43.1665 78.7006 42.8856 79.1716C42.6091 79.6426 42.2202 80.0077 41.719 80.2669C41.2221 80.5262 40.6669 80.6558 40.0534 80.6558C39.025 80.6558 38.2257 80.3965 37.6553 79.8781C37.085 79.3596 36.7998 78.625 36.7998 77.6745H39.0812C39.0812 78.1065 39.1546 78.4198 39.3015 78.6142C39.4528 78.8087 39.7034 78.9059 40.0534 78.9059C40.3688 78.9059 40.6107 78.7892 40.7792 78.5559C40.9521 78.3183 41.0385 77.9877 41.0385 77.5643V71.0896Z" fill="black"/>
<path d="M49.6131 78.018C49.6131 77.6853 49.4943 77.426 49.2566 77.2402C49.0233 77.0544 48.6107 76.8621 48.0187 76.6634C47.4268 76.4646 46.9428 76.2724 46.5669 76.0866C45.3441 75.486 44.7328 74.6607 44.7328 73.6108C44.7328 73.0879 44.884 72.6278 45.1864 72.2303C45.4932 71.8284 45.9253 71.5173 46.4827 71.297C47.0401 71.0723 47.6666 70.96 48.3622 70.96C49.0406 70.96 49.6476 71.0809 50.1834 71.3229C50.7235 71.5649 51.1426 71.9105 51.4408 72.3599C51.7389 72.8049 51.888 73.3148 51.888 73.8895H49.6196C49.6196 73.5049 49.5007 73.2068 49.2631 72.995C49.0298 72.7833 48.7122 72.6775 48.3104 72.6775C47.9042 72.6775 47.5823 72.7682 47.3447 72.9497C47.1113 73.1268 46.9947 73.3537 46.9947 73.6302C46.9947 73.8722 47.1243 74.0925 47.3836 74.2913C47.6428 74.4857 48.0986 74.6888 48.7511 74.9005C49.4035 75.1079 49.9393 75.3326 50.3584 75.5746C51.3781 76.1622 51.888 76.9723 51.888 78.005C51.888 78.8303 51.5769 79.4784 50.9547 79.9493C50.3325 80.4203 49.4791 80.6558 48.3946 80.6558C47.6298 80.6558 46.9364 80.5197 46.3142 80.2475C45.6963 79.971 45.2296 79.595 44.9142 79.1198C44.6031 78.6401 44.4476 78.0892 44.4476 77.4671H46.729C46.729 77.9726 46.8586 78.3463 47.1178 78.5883C47.3814 78.8259 47.807 78.9448 48.3946 78.9448C48.7705 78.9448 49.0665 78.8648 49.2825 78.705C49.5029 78.5408 49.6131 78.3118 49.6131 78.018Z" fill="black"/>
<path d="M56.3672 84.3999C55.8177 84.3999 55.3282 84.3062 54.8989 84.1188C54.472 83.929 54.1347 83.6687 53.8869 83.3378C53.6415 83.0044 53.5152 82.62 53.5078 82.1844H55.1123C55.1221 82.3669 55.1822 82.5275 55.2927 82.6662C55.4055 82.8025 55.5552 82.9083 55.7416 82.9837C55.9281 83.0592 56.1378 83.0969 56.3709 83.0969C56.6138 83.0969 56.8285 83.0543 57.0149 82.9691C57.2014 82.884 57.3474 82.766 57.4529 82.6151C57.5584 82.4642 57.6111 82.2903 57.6111 82.0932C57.6111 81.8937 57.5547 81.7173 57.4418 81.564C57.3314 81.4082 57.1719 81.2866 56.9634 81.199C56.7573 81.1114 56.512 81.0676 56.2274 81.0676H55.5245V79.907H56.2274C56.4678 79.907 56.68 79.8656 56.864 79.7829C57.0505 79.7001 57.1953 79.5858 57.2983 79.4398C57.4013 79.2914 57.4529 79.1186 57.4529 78.9215C57.4529 78.7342 57.4075 78.5699 57.3167 78.4288C57.2284 78.2852 57.1033 78.1733 56.9413 78.093C56.7819 78.0127 56.5954 77.9726 56.382 77.9726C56.1661 77.9726 55.9686 78.0115 55.7895 78.0894C55.6104 78.1648 55.4668 78.2731 55.3589 78.4142C55.2509 78.5553 55.1933 78.7208 55.1859 78.9106H53.6587C53.6661 78.4799 53.79 78.1003 54.0304 77.7718C54.2708 77.4434 54.5947 77.1867 55.0019 77.0017C55.4116 76.8144 55.8741 76.7207 56.3893 76.7207C56.9094 76.7207 57.3645 76.8144 57.7546 77.0017C58.1447 77.1891 58.4477 77.4421 58.6636 77.7609C58.882 78.0772 58.9899 78.4325 58.9875 78.8266C58.9899 79.2451 58.8587 79.5943 58.5937 79.8741C58.3312 80.1539 57.9889 80.3316 57.5669 80.407V80.4654C58.1214 80.5359 58.5434 80.727 58.8329 81.0384C59.1248 81.3474 59.2696 81.7343 59.2671 82.199C59.2696 82.6248 59.1457 83.0032 58.8955 83.3341C58.6477 83.665 58.3054 83.9254 57.8687 84.1152C57.432 84.305 56.9315 84.3999 56.3672 84.3999Z" fill="black"/>
<path d="M23.2772 28.1937C23.7245 27.9354 24.2755 27.9354 24.7228 28.1937L28.2772 30.2458C28.7245 30.504 29 30.9813 29 31.4977V35.602C29 36.1185 28.7245 36.5957 28.2772 36.8539L24.7228 38.9061C24.2755 39.1643 23.7245 39.1643 23.2772 38.9061L19.7228 36.8539C19.2755 36.5957 19 36.1185 19 35.602V31.4977C19 30.9813 19.2755 30.504 19.7228 30.2458L23.2772 28.1937Z" fill="#F3DC1E"/>
<path d="M71.2772 117.194C71.7245 116.935 72.2755 116.935 72.7228 117.194L76.2772 119.246C76.7245 119.504 77 119.981 77 120.498V124.602C77 125.118 76.7245 125.596 76.2772 125.854L72.7228 127.906C72.2755 128.164 71.7245 128.164 71.2772 127.906L67.7228 125.854C67.2755 125.596 67 125.118 67 124.602V120.498C67 119.981 67.2755 119.504 67.7228 119.246L71.2772 117.194Z" fill="#F3DC1E"/>
</svg>
