<svg width="14" height="14" viewBox="0 0 14 14" fill="none" xmlns="http://www.w3.org/2000/svg">
<path d="M8.99946 0.00011301C8.99933 -0.000219327 8.9997 -0.00052416 9 -0.000325612L11.1006 1.40007C11.6937 1.79546 12.2026 2.30437 12.598 2.89745C12.8642 3.29672 13.0759 3.72969 13.2277 4.18493L13.4631 4.89116C13.8143 5.94481 13.8845 7.07187 13.6666 8.16095C13.5554 8.71718 13.3705 9.2561 13.1168 9.76346L12.9734 10.0503C12.6592 10.6787 12.2458 11.2523 11.749 11.749C11.2523 12.2458 10.6787 12.6592 10.0503 12.9734L9.76346 13.1168C9.2561 13.3705 8.71718 13.5554 8.16095 13.6666C7.07187 13.8845 5.94481 13.8143 4.89116 13.4631L4.18493 13.2277C3.72969 13.0759 3.29672 12.8642 2.89745 12.598C2.30437 12.2026 1.79546 11.6937 1.40007 11.1006L-0.000303745 9.00003C-0.000486968 8.99976 -0.000187133 8.99942 0.000108305 8.99957L1.83558 9.9173C3.22523 10.6121 4.82767 10.7504 6.31582 10.304L6.54097 10.2364C8.10132 9.76834 9.37967 8.64257 10.0413 7.15392C10.6536 5.77616 10.6832 4.20941 10.1232 2.80954L8.99946 0.00011301Z" fill="#F2DA3A"/>
</svg>
