<svg width="14" height="14" viewBox="0 0 14 14" fill="none" xmlns="http://www.w3.org/2000/svg">
<path d="M5.75 2.84082C5.88807 2.84082 6 2.95275 6 3.09082C6 3.22889 5.88807 3.34082 5.75 3.34082H4.75C3.23122 3.34082 2 4.57204 2 6.09082V8.09082C2 9.6096 3.23122 10.8408 4.75 10.8408H5.14648L3.98242 9.67676C3.88479 9.57913 3.88479 9.42087 3.98242 9.32324C4.08005 9.22561 4.23831 9.22561 4.33594 9.32324L5.92676 10.9141C6.02439 11.0117 6.02439 11.1699 5.92676 11.2676L4.33594 12.8584C4.23831 12.956 4.08005 12.956 3.98242 12.8584C3.88479 12.7608 3.88479 12.6025 3.98242 12.5049L5.14648 11.3408H4.75C2.95507 11.3408 1.5 9.88575 1.5 8.09082V6.09082C1.5 4.29589 2.95507 2.84082 4.75 2.84082H5.75Z" fill="#ABABAB"/>
<path d="M5.75 2.84082L5.75 2.34082H5.75V2.84082ZM6 3.09082L6.5 3.09082V3.09082L6 3.09082ZM5.75 3.34082V3.84082H5.75L5.75 3.34082ZM4.75 3.34082V3.84082V3.84082V3.34082ZM2 6.09082H2.5V6.09082H2ZM2 8.09082H1.5H1.5H2ZM5.14648 10.8408V11.3408H6.35359L5.50004 10.4873L5.14648 10.8408ZM3.98242 9.32324L3.62887 8.96969L3.62887 8.96969L3.98242 9.32324ZM4.33594 9.32324L4.68949 8.96969L4.33594 9.32324ZM5.92676 10.9141L6.28031 10.5605L6.28031 10.5605L5.92676 10.9141ZM5.92676 11.2676L6.28031 11.6211L6.28031 11.6211L5.92676 11.2676ZM4.33594 12.8584L3.98238 12.5048L3.98238 12.5048L4.33594 12.8584ZM3.98242 12.8584L3.62887 13.212H3.62887L3.98242 12.8584ZM3.98242 12.5049L3.62887 12.1513L3.62887 12.1513L3.98242 12.5049ZM5.14648 11.3408L5.50004 11.6944L6.35359 10.8408H5.14648V11.3408ZM1.5 8.09082H1V8.09082H1.5ZM1.5 6.09082H2V6.09082H1.5ZM4.75 2.84082V3.34082V3.34082V2.84082ZM5.75 2.84082L5.75 3.34082C5.61193 3.34082 5.5 3.22889 5.5 3.09082L6 3.09082L6.5 3.09082C6.5 2.67661 6.16421 2.34082 5.75 2.34082L5.75 2.84082ZM6 3.09082L5.5 3.09082C5.5 2.95275 5.61193 2.84082 5.75 2.84082L5.75 3.34082L5.75 3.84082C6.16422 3.84082 6.5 3.50503 6.5 3.09082L6 3.09082ZM5.75 3.34082V2.84082H4.75V3.34082V3.84082H5.75V3.34082ZM4.75 3.34082V2.84082C2.95507 2.84082 1.5 4.29589 1.5 6.09082H2H2.5C2.5 4.84818 3.50736 3.84082 4.75 3.84082V3.34082ZM2 6.09082H1.5V8.09082H2H2.5V6.09082H2ZM2 8.09082H1.5C1.5 9.88575 2.95507 11.3408 4.75 11.3408V10.8408V10.3408C3.50736 10.3408 2.5 9.33346 2.5 8.09082H2ZM4.75 10.8408V11.3408H5.14648V10.8408V10.3408H4.75V10.8408ZM5.14648 10.8408L5.50004 10.4873L4.33598 9.3232L3.98242 9.67676L3.62887 10.0303L4.79293 11.1944L5.14648 10.8408ZM3.98242 9.67676L4.33598 9.3232C4.43361 9.42084 4.43361 9.57916 4.33598 9.6768L3.98242 9.32324L3.62887 8.96969C3.33598 9.26258 3.33598 9.73742 3.62887 10.0303L3.98242 9.67676ZM3.98242 9.32324L4.33597 9.6768C4.23834 9.77443 4.08002 9.77443 3.98238 9.6768L4.33594 9.32324L4.68949 8.96969C4.3966 8.6768 3.92176 8.6768 3.62887 8.96969L3.98242 9.32324ZM4.33594 9.32324L3.98238 9.6768L5.5732 11.2676L5.92676 10.9141L6.28031 10.5605L4.68949 8.96969L4.33594 9.32324ZM5.92676 10.9141L5.5732 11.2676C5.47557 11.17 5.47557 11.0117 5.5732 10.914L5.92676 11.2676L6.28031 11.6211C6.5732 11.3282 6.5732 10.8534 6.28031 10.5605L5.92676 10.9141ZM5.92676 11.2676L5.5732 10.914L3.98238 12.5048L4.33594 12.8584L4.68949 13.212L6.28031 11.6211L5.92676 11.2676ZM4.33594 12.8584L3.98238 12.5048C4.08002 12.4072 4.23834 12.4072 4.33598 12.5048L3.98242 12.8584L3.62887 13.212C3.92176 13.5048 4.3966 13.5048 4.68949 13.212L4.33594 12.8584ZM3.98242 12.8584L4.33598 12.5048C4.43361 12.6025 4.43361 12.7608 4.33598 12.8584L3.98242 12.5049L3.62887 12.1513C3.33598 12.4442 3.33598 12.9191 3.62887 13.212L3.98242 12.8584ZM3.98242 12.5049L4.33598 12.8584L5.50004 11.6944L5.14648 11.3408L4.79293 10.9873L3.62887 12.1513L3.98242 12.5049ZM5.14648 11.3408V10.8408H4.75V11.3408V11.8408H5.14648V11.3408ZM4.75 11.3408V10.8408C3.23122 10.8408 2 9.6096 2 8.09082H1.5H1C1 10.1619 2.67893 11.8408 4.75 11.8408V11.3408ZM1.5 8.09082H2V6.09082H1.5H1V8.09082H1.5ZM1.5 6.09082H2C2 4.57204 3.23122 3.34082 4.75 3.34082V2.84082V2.34082C2.67893 2.34082 1 4.01975 1 6.09082H1.5ZM4.75 2.84082V3.34082H5.75V2.84082V2.34082H4.75V2.84082Z" fill="#ABABAB"/>
<path fill-rule="evenodd" clip-rule="evenodd" d="M9.91406 1.07322C10.0117 0.975592 10.1699 0.975592 10.2676 1.07322C10.3652 1.17086 10.3652 1.32911 10.2676 1.42674L9.10352 2.5908H9.5C11.2949 2.5908 12.75 4.04588 12.75 5.8408V7.8408C12.75 9.63572 11.2949 11.0908 9.5 11.0908H8.5C8.36194 11.0908 8.25001 10.9789 8.25 10.8408C8.25 10.7027 8.36193 10.5908 8.5 10.5908H9.5C11.0188 10.5908 12.25 9.35958 12.25 7.8408V5.8408C12.25 4.32202 11.0188 3.0908 9.5 3.0908H9.10352L10.2676 4.25486C10.3652 4.3525 10.3652 4.51075 10.2676 4.60838C10.1699 4.706 10.0117 4.706 9.91406 4.60838L8.32324 3.01756C8.22561 2.91993 8.22562 2.76168 8.32324 2.66404L9.91406 1.07322Z" fill="#ABABAB"/>
<path d="M9.91406 1.07322L10.2676 1.42678L10.2676 1.42678L9.91406 1.07322ZM10.2676 1.07322L10.6212 0.71969L10.6211 0.719671L10.2676 1.07322ZM10.2676 1.42674L10.6211 1.78029L10.6211 1.78029L10.2676 1.42674ZM9.10352 2.5908L8.74996 2.23725L7.89641 3.0908H9.10352V2.5908ZM12.75 7.8408L13.25 7.8408V7.8408H12.75ZM8.25 10.8408L7.75 10.8408V10.8408L8.25 10.8408ZM12.25 7.8408L12.75 7.84081V7.8408H12.25ZM9.10352 3.0908V2.5908H7.89641L8.74996 3.44436L9.10352 3.0908ZM10.2676 4.25486L10.6212 3.90133L10.6211 3.90131L10.2676 4.25486ZM10.2676 4.60838L10.6211 4.96195L10.6211 4.96193L10.2676 4.60838ZM9.91406 4.60838L9.56051 4.96193L9.56053 4.96195L9.91406 4.60838ZM8.32324 3.01756L7.96969 3.37111L7.96969 3.37111L8.32324 3.01756ZM8.32324 2.66404L7.96969 2.31049L7.96967 2.31051L8.32324 2.66404ZM9.91406 1.07322L10.2676 1.42678C10.17 1.52441 10.0117 1.52441 9.91402 1.42678L10.2676 1.07322L10.6211 0.719671C10.3282 0.426776 9.8534 0.426776 9.56051 0.719671L9.91406 1.07322ZM10.2676 1.07322L9.91401 1.42676C9.81641 1.32915 9.81637 1.17084 9.91402 1.07319L10.2676 1.42674L10.6211 1.78029C10.914 1.48738 10.914 1.01256 10.6212 0.71969L10.2676 1.07322ZM10.2676 1.42674L9.91402 1.07319L8.74996 2.23725L9.10352 2.5908L9.45707 2.94436L10.6211 1.78029L10.2676 1.42674ZM9.10352 2.5908V3.0908H9.5V2.5908V2.0908H9.10352V2.5908ZM9.5 2.5908V3.0908C11.0188 3.0908 12.25 4.32202 12.25 5.8408H12.75H13.25C13.25 3.76973 11.5711 2.0908 9.5 2.0908V2.5908ZM12.75 5.8408H12.25V7.8408H12.75H13.25V5.8408H12.75ZM12.75 7.8408L12.25 7.8408C12.25 9.35958 11.0188 10.5908 9.5 10.5908V11.0908V11.5908C11.5711 11.5908 13.25 9.91186 13.25 7.8408L12.75 7.8408ZM9.5 11.0908V10.5908H8.5V11.0908V11.5908H9.5V11.0908ZM8.5 11.0908V10.5908C8.63811 10.5908 8.74999 10.7028 8.75 10.8408L8.25 10.8408L7.75 10.8408C7.75003 11.255 8.08576 11.5908 8.5 11.5908V11.0908ZM8.25 10.8408H8.75C8.75 10.9789 8.63807 11.0908 8.5 11.0908V10.5908V10.0908C8.08579 10.0908 7.75 10.4266 7.75 10.8408H8.25ZM8.5 10.5908V11.0908H9.5V10.5908V10.0908H8.5V10.5908ZM9.5 10.5908V11.0908C11.2949 11.0908 12.75 9.63572 12.75 7.84081L12.25 7.8408L11.75 7.8408C11.75 9.08344 10.7426 10.0908 9.5 10.0908V10.5908ZM12.25 7.8408H12.75V5.8408H12.25H11.75V7.8408H12.25ZM12.25 5.8408H12.75C12.75 4.04588 11.2949 2.5908 9.5 2.5908V3.0908V3.5908C10.7426 3.5908 11.75 4.59816 11.75 5.8408H12.25ZM9.5 3.0908V2.5908H9.10352V3.0908V3.5908H9.5V3.0908ZM9.10352 3.0908L8.74996 3.44436L9.91402 4.60842L10.2676 4.25486L10.6211 3.90131L9.45707 2.73725L9.10352 3.0908ZM10.2676 4.25486L9.91401 4.6084C9.81641 4.51079 9.81637 4.35248 9.91402 4.25483L10.2676 4.60838L10.6211 4.96193C10.914 4.66902 10.914 4.1942 10.6212 3.90133L10.2676 4.25486ZM10.2676 4.60838L9.91404 4.25481C10.0117 4.15719 10.17 4.15719 10.2676 4.25481L9.91406 4.60838L9.56053 4.96195C9.85341 5.25481 10.3282 5.25481 10.6211 4.96195L10.2676 4.60838ZM9.91406 4.60838L10.2676 4.25483L8.6768 2.66401L8.32324 3.01756L7.96969 3.37111L9.56051 4.96193L9.91406 4.60838ZM8.32324 3.01756L8.6768 2.66401C8.77445 2.76166 8.77441 2.91997 8.67682 3.01758L8.32324 2.66404L7.96967 2.31051C7.67683 2.60338 7.67678 3.0782 7.96969 3.37111L8.32324 3.01756ZM8.32324 2.66404L8.6768 3.0176L10.2676 1.42678L9.91406 1.07322L9.56051 0.71967L7.96969 2.31049L8.32324 2.66404Z" fill="#ABABAB"/>
</svg>
